<svg width="201" height="54" viewBox="0 0 201 54" fill="none" xmlns="http://www.w3.org/2000/svg">
<path d="M26.6667 3.44442C22.0518 3.44442 17.5405 4.81289 13.7034 7.37679C9.86621 9.94069 6.87552 13.5849 5.10948 17.8485C3.34343 22.1121 2.88135 26.8036 3.78167 31.3299C4.682 35.8561 6.90428 40.0137 10.1675 43.2769C13.4307 46.5401 17.5883 48.7624 22.1146 49.6627C26.6408 50.5631 31.3323 50.101 35.5959 48.3349C39.8596 46.5689 43.5037 43.5782 46.0676 39.7411C48.6315 35.9039 50 31.3926 50 26.7778C49.9931 20.5915 47.5325 14.6606 43.1582 10.2863C38.7838 5.91191 32.8529 3.45136 26.6667 3.44442ZM26.6667 48.4444C22.3814 48.4444 18.1924 47.1737 14.6293 44.7929C11.0662 42.4122 8.28917 39.0283 6.64927 35.0692C5.00938 31.1102 4.5803 26.7537 5.41632 22.5508C6.25233 18.3479 8.31588 14.4872 11.346 11.4571C14.3762 8.42697 18.2368 6.36342 22.4397 5.5274C26.6426 4.69139 30.9991 5.12046 34.9581 6.76036C38.9172 8.40026 42.3011 11.1773 44.6818 14.7404C47.0626 18.3035 48.3333 22.4925 48.3333 26.7778C48.3269 32.5221 46.0421 38.0294 41.9802 42.0913C37.9183 46.1532 32.411 48.438 26.6667 48.4444Z" fill="url(#paint0_linear_35_2)"/>
<path d="M10 19.2778C10.2908 19.275 10.579 19.3312 10.8475 19.443C11.1159 19.5548 11.3588 19.7199 11.5617 19.9282C12.2753 20.5734 13.203 20.9306 14.165 20.9306C15.127 20.9306 16.0547 20.5735 16.7684 19.9285C17.183 19.5152 17.7446 19.2831 18.33 19.283C18.9154 19.283 19.477 19.515 19.8917 19.9282C20.605 20.5743 21.533 20.9321 22.4954 20.9322C23.4578 20.9322 24.3859 20.5745 25.0992 19.9285C25.5138 19.5151 26.0754 19.2829 26.6608 19.2828C27.2463 19.2828 27.8079 19.5149 28.2225 19.9282C28.9362 20.5731 29.8639 20.9302 30.8258 20.9303C31.7876 20.9304 32.7154 20.5736 33.4292 19.9289C33.8451 19.516 34.4073 19.2843 34.9933 19.2843C35.5793 19.2843 36.1416 19.5159 36.5575 19.9288C37.2679 20.5819 38.1978 20.9444 39.1629 20.9444C40.1279 20.9444 41.0578 20.5819 41.7682 19.9288C41.9725 19.7214 42.2162 19.5569 42.485 19.4451C42.7538 19.3333 43.0422 19.2764 43.3333 19.2778C43.5521 19.2744 43.7607 19.1851 43.9143 19.0292C44.0678 18.8733 44.1538 18.6632 44.1538 18.4444C44.1538 18.2256 44.0678 18.0156 43.9143 17.8597C43.7608 17.7038 43.5521 17.6145 43.3333 17.6111C42.367 17.6036 41.4346 17.967 40.7283 18.6266C40.312 19.0394 39.7494 19.2711 39.163 19.2711C38.5767 19.2711 38.0141 19.0396 37.5976 18.6268C36.8835 17.9814 35.9552 17.624 34.9926 17.6241C34.03 17.6241 33.1017 17.9816 32.3876 18.6271C32.1832 18.8333 31.9399 18.9969 31.6719 19.1086C31.4038 19.2202 31.1163 19.2777 30.826 19.2777C30.5356 19.2777 30.2481 19.2202 29.9801 19.1086C29.7121 18.9969 29.4688 18.8333 29.2643 18.6271C28.5548 17.9738 27.6255 17.6111 26.661 17.6111C25.6965 17.6111 24.7672 17.9738 24.0576 18.6271C23.8531 18.8333 23.6097 18.9969 23.3416 19.1086C23.0735 19.2202 22.786 19.2777 22.4956 19.2777C22.2051 19.2777 21.9176 19.2202 21.6495 19.1086C21.3814 18.9969 21.138 18.8333 20.9335 18.6271C20.2239 17.9738 19.2947 17.6111 18.3301 17.6111C17.3656 17.6111 16.4364 17.9738 15.7268 18.6271C15.5223 18.8333 15.2791 18.9969 15.011 19.1086C14.743 19.2203 14.4555 19.2778 14.1651 19.2778C13.8748 19.2778 13.5873 19.2203 13.3192 19.1086C13.0512 18.9969 12.8079 18.8333 12.6034 18.6271C11.8978 17.9675 10.966 17.6038 10.0001 17.6111C9.78127 17.6145 9.5726 17.7037 9.41908 17.8597C9.26556 18.0156 9.17951 18.2256 9.1795 18.4444C9.1795 18.6632 9.26554 18.8732 9.41905 19.0291C9.57256 19.1851 9.78122 19.2744 10 19.2778Z" fill="url(#paint1_linear_35_2)"/>
<path d="M43.3333 22.6111C42.367 22.6036 41.4346 22.967 40.7283 23.6266C40.312 24.0394 39.7494 24.2711 39.163 24.2711C38.5767 24.2711 38.0141 24.0396 37.5976 23.6268C36.8835 22.9814 35.9552 22.624 34.9926 22.6241C34.03 22.6241 33.1017 22.9816 32.3876 23.6271C32.1832 23.8333 31.9399 23.9969 31.6719 24.1086C31.4038 24.2202 31.1163 24.2777 30.826 24.2777C30.5356 24.2777 30.2481 24.2202 29.9801 24.1086C29.7121 23.9969 29.4688 23.8333 29.2643 23.6271C28.5548 22.9738 27.6255 22.6111 26.661 22.6111C25.6965 22.6111 24.7672 22.9738 24.0576 23.6271C23.8531 23.8333 23.6097 23.9969 23.3416 24.1086C23.0735 24.2202 22.786 24.2777 22.4956 24.2777C22.2051 24.2777 21.9176 24.2202 21.6495 24.1086C21.3814 23.9969 21.138 23.8333 20.9335 23.6271C20.2239 22.9738 19.2947 22.6111 18.3301 22.6111C17.3656 22.6111 16.4364 22.9738 15.7268 23.6271C15.5223 23.8333 15.2791 23.9969 15.011 24.1086C14.743 24.2203 14.4555 24.2778 14.1651 24.2778C13.8748 24.2778 13.5873 24.2203 13.3192 24.1086C13.0512 23.9969 12.8079 23.8333 12.6034 23.6271C11.8978 22.9675 10.966 22.6038 10.0001 22.6111C9.78127 22.6145 9.5726 22.7037 9.41908 22.8597C9.26556 23.0156 9.17951 23.2256 9.1795 23.4444C9.1795 23.6632 9.26554 23.8732 9.41905 24.0291C9.57256 24.1851 9.78122 24.2744 10 24.2778C10.2908 24.275 10.579 24.3312 10.8475 24.443C11.1159 24.5548 11.3588 24.7199 11.5617 24.9282C12.2753 25.5734 13.203 25.9306 14.165 25.9306C15.127 25.9306 16.0547 25.5735 16.7684 24.9285C17.183 24.5152 17.7446 24.2831 18.33 24.283C18.9154 24.283 19.477 24.515 19.8917 24.9282C20.605 25.5743 21.533 25.9321 22.4954 25.9322C23.4578 25.9322 24.3859 25.5745 25.0992 24.9285C25.5138 24.5151 26.0754 24.2829 26.6608 24.2828C27.2463 24.2828 27.8079 24.5149 28.2225 24.9282C28.9362 25.5731 29.8639 25.9302 30.8258 25.9303C31.7876 25.9304 32.7154 25.5736 33.4292 24.9289C33.8451 24.516 34.4073 24.2843 34.9933 24.2843C35.5793 24.2843 36.1416 24.5159 36.5575 24.9288C37.2679 25.5819 38.1978 25.9444 39.1629 25.9444C40.1279 25.9444 41.0578 25.5819 41.7682 24.9288C41.9725 24.7214 42.2162 24.5569 42.485 24.4451C42.7538 24.3333 43.0422 24.2764 43.3333 24.2778C43.5521 24.2744 43.7607 24.1851 43.9143 24.0292C44.0678 23.8733 44.1538 23.6632 44.1538 23.4444C44.1538 23.2256 44.0678 23.0156 43.9143 22.8597C43.7608 22.7038 43.5521 22.6145 43.3333 22.6111Z" fill="url(#paint2_linear_35_2)"/>
<path d="M43.3333 27.6111C42.367 27.6036 41.4346 27.967 40.7283 28.6266C40.312 29.0394 39.7494 29.2711 39.163 29.2711C38.5767 29.2711 38.0141 29.0396 37.5976 28.6268C36.8835 27.9814 35.9552 27.624 34.9926 27.6241C34.03 27.6241 33.1017 27.9816 32.3876 28.6271C32.1832 28.8333 31.9399 28.9969 31.6719 29.1086C31.4038 29.2202 31.1163 29.2777 30.826 29.2777C30.5356 29.2777 30.2481 29.2202 29.9801 29.1086C29.7121 28.9969 29.4688 28.8333 29.2643 28.6271C28.5548 27.9738 27.6255 27.6111 26.661 27.6111C25.6965 27.6111 24.7672 27.9738 24.0576 28.6271C23.8531 28.8333 23.6097 28.9969 23.3416 29.1086C23.0735 29.2202 22.786 29.2777 22.4956 29.2777C22.2051 29.2777 21.9176 29.2202 21.6495 29.1086C21.3814 28.9969 21.138 28.8333 20.9335 28.6271C20.2239 27.9738 19.2947 27.6111 18.3301 27.6111C17.3656 27.6111 16.4364 27.9738 15.7268 28.6271C15.5223 28.8333 15.2791 28.9969 15.011 29.1086C14.743 29.2203 14.4555 29.2778 14.1651 29.2778C13.8748 29.2778 13.5873 29.2203 13.3192 29.1086C13.0512 28.9969 12.8079 28.8333 12.6034 28.6271C11.8978 27.9675 10.966 27.6038 10.0001 27.6111C9.78127 27.6145 9.5726 27.7037 9.41908 27.8597C9.26556 28.0156 9.17951 28.2256 9.1795 28.4444C9.1795 28.6632 9.26554 28.8732 9.41905 29.0291C9.57256 29.1851 9.78122 29.2744 10 29.2778C10.2908 29.275 10.579 29.3312 10.8475 29.443C11.1159 29.5548 11.3588 29.7199 11.5617 29.9282C12.2753 30.5734 13.203 30.9306 14.165 30.9306C15.127 30.9306 16.0547 30.5735 16.7684 29.9285C17.183 29.5152 17.7446 29.2831 18.33 29.283C18.9154 29.283 19.477 29.515 19.8917 29.9282C20.605 30.5743 21.533 30.9321 22.4954 30.9322C23.4578 30.9322 24.3859 30.5745 25.0992 29.9285C25.5138 29.5151 26.0754 29.2829 26.6608 29.2828C27.2463 29.2828 27.8079 29.5149 28.2225 29.9282C28.9362 30.5731 29.8639 30.9302 30.8258 30.9303C31.7876 30.9304 32.7154 30.5736 33.4292 29.9289C33.8451 29.516 34.4073 29.2843 34.9933 29.2843C35.5793 29.2843 36.1416 29.5159 36.5575 29.9288C37.2679 30.5819 38.1978 30.9444 39.1629 30.9444C40.1279 30.9444 41.0578 30.5819 41.7682 29.9288C41.9725 29.7214 42.2162 29.5569 42.485 29.4451C42.7538 29.3333 43.0422 29.2764 43.3333 29.2778C43.5521 29.2744 43.7607 29.1851 43.9143 29.0292C44.0678 28.8733 44.1538 28.6632 44.1538 28.4444C44.1538 28.2256 44.0678 28.0156 43.9143 27.8597C43.7608 27.7038 43.5521 27.6145 43.3333 27.6111Z" fill="url(#paint3_linear_35_2)"/>
<path d="M43.3333 32.6111C42.367 32.6036 41.4346 32.967 40.7283 33.6266C40.312 34.0394 39.7494 34.2711 39.163 34.2711C38.5767 34.2711 38.0141 34.0396 37.5976 33.6268C36.8835 32.9814 35.9552 32.624 34.9926 32.6241C34.03 32.6241 33.1017 32.9816 32.3876 33.6271C32.1832 33.8333 31.9399 33.9969 31.6719 34.1086C31.4038 34.2202 31.1163 34.2777 30.826 34.2777C30.5356 34.2777 30.2481 34.2202 29.9801 34.1086C29.7121 33.9969 29.4688 33.8333 29.2643 33.6271C28.5548 32.9738 27.6255 32.6111 26.661 32.6111C25.6965 32.6111 24.7672 32.9738 24.0576 33.6271C23.8531 33.8333 23.6097 33.9969 23.3416 34.1086C23.0735 34.2202 22.786 34.2777 22.4956 34.2777C22.2051 34.2777 21.9176 34.2202 21.6495 34.1086C21.3814 33.9969 21.138 33.8333 20.9335 33.6271C20.2239 32.9738 19.2947 32.6111 18.3301 32.6111C17.3656 32.6111 16.4364 32.9738 15.7268 33.6271C15.5223 33.8333 15.2791 33.9969 15.011 34.1086C14.743 34.2203 14.4555 34.2778 14.1651 34.2778C13.8748 34.2778 13.5873 34.2203 13.3192 34.1086C13.0512 33.9969 12.8079 33.8333 12.6034 33.6271C11.8978 32.9675 10.966 32.6038 10.0001 32.6111C9.78127 32.6145 9.5726 32.7037 9.41908 32.8597C9.26556 33.0156 9.17951 33.2256 9.1795 33.4444C9.1795 33.6632 9.26554 33.8732 9.41905 34.0291C9.57256 34.1851 9.78122 34.2744 10 34.2778C10.2908 34.275 10.579 34.3312 10.8475 34.443C11.1159 34.5548 11.3588 34.7199 11.5617 34.9282C12.2753 35.5734 13.203 35.9306 14.165 35.9306C15.127 35.9306 16.0547 35.5735 16.7684 34.9285C17.183 34.5152 17.7446 34.2831 18.33 34.283C18.9154 34.283 19.477 34.515 19.8917 34.9282C20.605 35.5743 21.533 35.9321 22.4954 35.9322C23.4578 35.9322 24.3859 35.5745 25.0992 34.9285C25.5138 34.5151 26.0754 34.2829 26.6608 34.2828C27.2463 34.2828 27.8079 34.5149 28.2225 34.9282C28.9362 35.5731 29.8639 35.9302 30.8258 35.9303C31.7876 35.9304 32.7154 35.5736 33.4292 34.9289C33.8451 34.516 34.4073 34.2843 34.9933 34.2843C35.5793 34.2843 36.1416 34.5159 36.5575 34.9288C37.2679 35.5819 38.1978 35.9444 39.1629 35.9444C40.1279 35.9444 41.0578 35.5819 41.7682 34.9288C41.9725 34.7214 42.2162 34.5569 42.485 34.4451C42.7538 34.3333 43.0422 34.2764 43.3333 34.2778C43.5521 34.2744 43.7607 34.1851 43.9143 34.0292C44.0678 33.8733 44.1538 33.6632 44.1538 33.4444C44.1538 33.2256 44.0678 33.0156 43.9143 32.8597C43.7608 32.7038 43.5521 32.6145 43.3333 32.6111Z" fill="url(#paint4_linear_35_2)"/>
<path d="M67.44 42.4C66 42.4 64.6933 42.12 63.52 41.56C62.3733 40.9733 61.4267 40.1733 60.68 39.16L60.56 41.48C60.56 41.8267 60.3733 42 60 42H56.24C55.8933 42 55.72 41.8267 55.72 41.48V12.52C55.72 12.1733 55.8933 12 56.24 12H60.4C60.7467 12 60.92 12.1733 60.92 12.52V23.8C61.6667 22.8933 62.6 22.1867 63.72 21.68C64.84 21.1467 66.08 20.88 67.44 20.88C69.4133 20.88 71.12 21.3333 72.56 22.24C74.0267 23.1467 75.1467 24.4133 75.92 26.04C76.72 27.64 77.12 29.5067 77.12 31.64C77.12 33.7467 76.72 35.6133 75.92 37.24C75.1467 38.8667 74.0267 40.1333 72.56 41.04C71.12 41.9467 69.4133 42.4 67.44 42.4ZM66.16 37.68C67.8133 37.68 69.16 37.12 70.2 36C71.24 34.88 71.76 33.4267 71.76 31.64C71.76 29.8533 71.24 28.4 70.2 27.28C69.16 26.16 67.8133 25.6 66.16 25.6C64.5067 25.6 63.16 26.16 62.12 27.28C61.08 28.4 60.56 29.8533 60.56 31.64C60.56 33.4267 61.08 34.88 62.12 36C63.16 37.12 64.5067 37.68 66.16 37.68ZM91.105 42.4C88.8917 42.4 86.9583 41.9467 85.305 41.04C83.6783 40.1067 82.4117 38.8267 81.505 37.2C80.5983 35.5733 80.145 33.72 80.145 31.64C80.145 29.5333 80.5983 27.68 81.505 26.08C82.4117 24.4533 83.6783 23.1867 85.305 22.28C86.9583 21.3467 88.8917 20.88 91.105 20.88C93.3183 20.88 95.2383 21.3467 96.865 22.28C98.5183 23.1867 99.7983 24.4533 100.705 26.08C101.612 27.68 102.065 29.5333 102.065 31.64C102.065 33.72 101.612 35.5733 100.705 37.2C99.7983 38.8267 98.5183 40.1067 96.865 41.04C95.2383 41.9467 93.3183 42.4 91.105 42.4ZM91.105 37.68C92.7583 37.68 94.105 37.12 95.145 36C96.185 34.88 96.705 33.4267 96.705 31.64C96.705 29.8533 96.185 28.4 95.145 27.28C94.105 26.16 92.7583 25.6 91.105 25.6C89.4517 25.6 88.105 26.16 87.065 27.28C86.025 28.4 85.505 29.8533 85.505 31.64C85.505 33.4267 86.025 34.88 87.065 36C88.105 37.12 89.4517 37.68 91.105 37.68ZM106.826 42C106.479 42 106.306 41.8267 106.306 41.48V21.8C106.306 21.4533 106.479 21.28 106.826 21.28H110.586C110.959 21.28 111.146 21.4533 111.146 21.8L111.266 24.4C111.959 23.28 112.879 22.44 114.026 21.88C115.173 21.2933 116.359 21 117.586 21C118.119 21 118.586 21.04 118.986 21.12C119.279 21.2 119.426 21.3867 119.426 21.68V25.8C119.426 26.1467 119.239 26.2933 118.866 26.24C118.599 26.2133 118.306 26.1867 117.986 26.16C117.693 26.1067 117.346 26.08 116.946 26.08C116.013 26.08 115.133 26.2933 114.306 26.72C113.479 27.12 112.799 27.7067 112.266 28.48C111.759 29.2533 111.506 30.1867 111.506 31.28V41.48C111.506 41.8267 111.333 42 110.986 42H106.826ZM125.547 17.6C124.693 17.6 123.973 17.3333 123.387 16.8C122.8 16.2667 122.507 15.5733 122.507 14.72C122.507 13.8667 122.8 13.1733 123.387 12.64C123.973 12.1067 124.693 11.84 125.547 11.84C126.4 11.84 127.12 12.1067 127.707 12.64C128.293 13.1733 128.587 13.8667 128.587 14.72C128.587 15.5733 128.293 16.2667 127.707 16.8C127.12 17.3333 126.4 17.6 125.547 17.6ZM123.467 42C123.12 42 122.947 41.8267 122.947 41.48V21.8C122.947 21.4533 123.12 21.28 123.467 21.28H127.627C127.973 21.28 128.147 21.4533 128.147 21.8V41.48C128.147 41.8267 127.973 42 127.627 42H123.467ZM134.092 42C133.745 42 133.572 41.8267 133.572 41.48V21.8C133.572 21.4533 133.745 21.28 134.092 21.28H137.852C138.225 21.28 138.412 21.4533 138.412 21.8L138.532 24.16C139.305 23.0667 140.292 22.2533 141.492 21.72C142.692 21.16 143.958 20.88 145.292 20.88C147.692 20.88 149.545 21.56 150.852 22.92C152.185 24.28 152.852 26.1467 152.852 28.52V41.48C152.852 41.8267 152.678 42 152.332 42H148.172C147.825 42 147.652 41.8267 147.652 41.48V30.64C147.652 28.9067 147.332 27.64 146.692 26.84C146.052 26.0133 145.052 25.6 143.692 25.6C142.865 25.6 142.065 25.8133 141.292 26.24C140.545 26.6667 139.932 27.3067 139.452 28.16C138.998 29.0133 138.772 30.1067 138.772 31.44V41.48C138.772 41.8267 138.598 42 138.252 42H134.092ZM167.382 51.12C165.169 51.12 163.169 50.6133 161.382 49.6C159.595 48.6133 158.302 47.1333 157.502 45.16C157.342 44.8667 157.435 44.6533 157.782 44.52L161.142 43.28C161.409 43.1733 161.635 43.2667 161.822 43.56C162.329 44.4133 163.009 45.0933 163.862 45.6C164.715 46.1333 165.835 46.4 167.222 46.4C168.289 46.4 169.262 46.2267 170.142 45.88C171.049 45.56 171.769 45.0267 172.302 44.28C172.862 43.56 173.142 42.5867 173.142 41.36V39.48C172.395 40.3867 171.462 41.1067 170.342 41.64C169.222 42.1467 167.982 42.4 166.622 42.4C164.649 42.4 162.929 41.9467 161.462 41.04C160.022 40.1333 158.902 38.8667 158.102 37.24C157.329 35.6133 156.942 33.7467 156.942 31.64C156.942 29.5067 157.329 27.64 158.102 26.04C158.902 24.4133 160.022 23.1467 161.462 22.24C162.929 21.3333 164.649 20.88 166.622 20.88C168.062 20.88 169.355 21.1733 170.502 21.76C171.675 22.32 172.635 23.1067 173.382 24.12L173.502 21.8C173.502 21.4533 173.689 21.28 174.062 21.28H177.822C178.169 21.28 178.342 21.4533 178.342 21.8V40.84C178.342 43.0267 177.875 44.88 176.942 46.4C176.035 47.9467 174.755 49.12 173.102 49.92C171.475 50.72 169.569 51.12 167.382 51.12ZM167.902 37.68C169.555 37.68 170.902 37.12 171.942 36C172.982 34.88 173.502 33.4267 173.502 31.64C173.502 29.8533 172.982 28.4 171.942 27.28C170.902 26.16 169.555 25.6 167.902 25.6C166.249 25.6 164.902 26.16 163.862 27.28C162.822 28.4 162.302 29.8533 162.302 31.64C162.302 33.4267 162.822 34.88 163.862 36C164.902 37.12 166.249 37.68 167.902 37.68ZM195.236 42.4C194.329 42.4 193.556 42.1067 192.916 41.52C192.303 40.9067 191.996 40.1467 191.996 39.24C191.996 38.3067 192.303 37.5467 192.916 36.96C193.556 36.3733 194.329 36.08 195.236 36.08C196.169 36.08 196.943 36.3733 197.556 36.96C198.169 37.5467 198.476 38.3067 198.476 39.24C198.476 40.1467 198.169 40.9067 197.556 41.52C196.943 42.1067 196.169 42.4 195.236 42.4Z" fill="#24437D"/>
<defs>
<linearGradient id="paint0_linear_35_2" x1="26.6667" y1="3.44442" x2="26.6667" y2="50.1111" gradientUnits="userSpaceOnUse">
<stop offset="0.135" stop-color="#1C283E"/>
<stop offset="0.645" stop-color="#1D2C47"/>
<stop offset="1" stop-color="#244179"/>
</linearGradient>
<linearGradient id="paint1_linear_35_2" x1="26.6667" y1="17.611" x2="26.6667" y2="20.9444" gradientUnits="userSpaceOnUse">
<stop offset="0.135" stop-color="#1C283E"/>
<stop offset="0.645" stop-color="#1D2C47"/>
<stop offset="1" stop-color="#244179"/>
</linearGradient>
<linearGradient id="paint2_linear_35_2" x1="26.6667" y1="22.611" x2="26.6667" y2="25.9444" gradientUnits="userSpaceOnUse">
<stop offset="0.135" stop-color="#1C283E"/>
<stop offset="0.645" stop-color="#1D2C47"/>
<stop offset="1" stop-color="#244179"/>
</linearGradient>
<linearGradient id="paint3_linear_35_2" x1="26.6667" y1="27.611" x2="26.6667" y2="30.9444" gradientUnits="userSpaceOnUse">
<stop offset="0.135" stop-color="#1C283E"/>
<stop offset="0.645" stop-color="#1D2C47"/>
<stop offset="1" stop-color="#244179"/>
</linearGradient>
<linearGradient id="paint4_linear_35_2" x1="26.6667" y1="32.611" x2="26.6667" y2="35.9444" gradientUnits="userSpaceOnUse">
<stop offset="0.135" stop-color="#1C283E"/>
<stop offset="0.645" stop-color="#1D2C47"/>
<stop offset="1" stop-color="#244179"/>
</linearGradient>
</defs>
</svg>
