<svg width="59" height="59" viewBox="0 0 59 59" fill="none" xmlns="http://www.w3.org/2000/svg">
<path d="M29.5 3.6875C24.3948 3.6875 19.4042 5.20138 15.1594 8.03769C10.9145 10.874 7.60606 14.9054 5.65237 19.622C3.69868 24.3386 3.18751 29.5286 4.18349 34.5358C5.17947 39.5429 7.63787 44.1423 11.2478 47.7522C14.8578 51.3621 19.4571 53.8205 24.4642 54.8165C29.4714 55.8125 34.6614 55.3013 39.378 53.3476C44.0946 51.394 48.126 48.0855 50.9623 43.8407C53.7986 39.5958 55.3125 34.6052 55.3125 29.5C55.3048 22.6565 52.5828 16.0954 47.7437 11.2563C42.9046 6.41716 36.3436 3.69518 29.5 3.6875ZM29.5 53.4688C24.7594 53.4688 20.1253 52.063 16.1837 49.4293C12.242 46.7956 9.16991 43.0522 7.35577 38.6724C5.54164 34.2927 5.06697 29.4734 5.99181 24.8239C6.91665 20.1744 9.19946 15.9036 12.5515 12.5515C15.9036 9.19944 20.1745 6.91664 24.8239 5.9918C29.4734 5.06696 34.2927 5.54162 38.6725 7.35576C43.0522 9.1699 46.7956 12.242 49.4293 16.1837C52.063 20.1253 53.4688 24.7594 53.4688 29.5C53.4616 35.8547 50.9341 41.9471 46.4406 46.4406C41.9471 50.9341 35.8547 53.4616 29.5 53.4688Z" fill="white"/>
<path d="M11.0625 21.2031C11.3842 21.2001 11.7031 21.2623 12 21.386C12.297 21.5097 12.5657 21.6923 12.7901 21.9227C13.5795 22.6364 14.6058 23.0315 15.67 23.0316C16.7342 23.0316 17.7605 22.6366 18.55 21.923C19.0087 21.4658 19.6299 21.209 20.2776 21.209C20.9252 21.2089 21.5465 21.4656 22.0052 21.9227C22.7943 22.6374 23.8209 23.0333 24.8856 23.0333C25.9502 23.0334 26.9769 22.6376 27.766 21.923C28.2246 21.4657 28.8459 21.2088 29.4936 21.2088C30.1412 21.2087 30.7625 21.4655 31.2212 21.9227C32.0107 22.6361 33.0369 23.0311 34.101 23.0313C35.1651 23.0314 36.1914 22.6366 36.9811 21.9235C37.4411 21.4667 38.0631 21.2104 38.7114 21.2103C39.3597 21.2103 39.9816 21.4666 40.4417 21.9233C41.2277 22.6459 42.2563 23.0469 43.3239 23.0469C44.3915 23.0469 45.4202 22.6459 46.2061 21.9233C46.4321 21.6939 46.7017 21.512 46.999 21.3883C47.2964 21.2646 47.6154 21.2017 47.9375 21.2031C48.1795 21.1994 48.4103 21.1006 48.5802 20.9281C48.75 20.7557 48.8452 20.5233 48.8452 20.2813C48.8452 20.0392 48.75 19.8069 48.5802 19.6344C48.4104 19.4619 48.1795 19.3631 47.9375 19.3594C46.8685 19.3511 45.8371 19.7532 45.0557 20.4828C44.5951 20.9395 43.9728 21.1957 43.3241 21.1958C42.6755 21.1958 42.0531 20.9397 41.5924 20.483C40.8024 19.769 39.7754 19.3737 38.7106 19.3738C37.6457 19.3738 36.6188 19.7692 35.8289 20.4834C35.6026 20.7114 35.3335 20.8924 35.037 21.016C34.7405 21.1395 34.4225 21.2031 34.1013 21.2031C33.78 21.2031 33.462 21.1395 33.1655 21.016C32.869 20.8924 32.5999 20.7114 32.3737 20.4834C31.5887 19.7606 30.5607 19.3594 29.4937 19.3594C28.4267 19.3594 27.3987 19.7606 26.6138 20.4834C26.3875 20.7114 26.1183 20.8925 25.8217 21.016C25.5251 21.1395 25.207 21.2031 24.8857 21.2031C24.5644 21.2031 24.2463 21.1395 23.9498 21.016C23.6532 20.8925 23.384 20.7114 23.1577 20.4834C22.3727 19.7606 21.3447 19.3594 20.2777 19.3594C19.2107 19.3594 18.1827 19.7606 17.3978 20.4834C17.1716 20.7114 16.9025 20.8925 16.606 21.016C16.3094 21.1395 15.9914 21.2031 15.6702 21.2031C15.349 21.2031 15.0309 21.1395 14.7344 21.016C14.4379 20.8925 14.1688 20.7114 13.9426 20.4834C13.162 19.7536 12.1311 19.3513 11.0626 19.3594C10.8206 19.3631 10.5897 19.4619 10.4199 19.6344C10.25 19.8068 10.1549 20.0392 10.1548 20.2812C10.1548 20.5233 10.25 20.7556 10.4198 20.9281C10.5897 21.1006 10.8205 21.1994 11.0625 21.2031Z" fill="white"/>
<path d="M47.9375 24.8906C46.8685 24.8823 45.8371 25.2844 45.0557 26.0141C44.5951 26.4707 43.9728 26.727 43.3241 26.727C42.6755 26.7271 42.0531 26.4709 41.5924 26.0143C40.8024 25.3002 39.7754 24.9049 38.7106 24.905C37.6457 24.9051 36.6188 25.3005 35.8289 26.0146C35.6026 26.2427 35.3335 26.4237 35.037 26.5472C34.7405 26.6708 34.4225 26.7344 34.1013 26.7344C33.78 26.7344 33.462 26.6708 33.1655 26.5472C32.869 26.4237 32.5999 26.2427 32.3737 26.0146C31.5887 25.2919 30.5607 24.8907 29.4937 24.8907C28.4267 24.8907 27.3987 25.2919 26.6138 26.0146C26.3875 26.2427 26.1183 26.4237 25.8217 26.5472C25.5251 26.6708 25.207 26.7344 24.8857 26.7344C24.5644 26.7344 24.2463 26.6708 23.9498 26.5472C23.6532 26.4237 23.384 26.2427 23.1577 26.0146C22.3727 25.2919 21.3447 24.8907 20.2777 24.8907C19.2107 24.8907 18.1827 25.2919 17.3978 26.0146C17.1716 26.2427 16.9025 26.4237 16.606 26.5472C16.3094 26.6708 15.9914 26.7344 15.6702 26.7344C15.349 26.7344 15.0309 26.6708 14.7344 26.5472C14.4379 26.4237 14.1688 26.2427 13.9426 26.0146C13.162 25.2849 12.1311 24.8825 11.0626 24.8906C10.8206 24.8944 10.5897 24.9931 10.4199 25.1656C10.25 25.3381 10.1549 25.5704 10.1548 25.8125C10.1548 26.0545 10.25 26.2869 10.4198 26.4594C10.5897 26.6318 10.8205 26.7306 11.0625 26.7344C11.3842 26.7313 11.7031 26.7935 12 26.9172C12.297 27.0409 12.5657 27.2235 12.7901 27.454C13.5795 28.1676 14.6058 28.5628 15.67 28.5628C16.7342 28.5629 17.7605 28.1678 18.55 27.4543C19.0087 26.997 19.6299 26.7403 20.2776 26.7402C20.9252 26.7402 21.5465 26.9968 22.0052 27.454C22.7943 28.1687 23.8209 28.5645 24.8856 28.5646C25.9502 28.5646 26.9769 28.1689 27.766 27.4543C28.2246 26.9969 28.8459 26.7401 29.4936 26.74C30.1412 26.74 30.7625 26.9967 31.2212 27.454C32.0107 28.1674 33.0369 28.5624 34.101 28.5625C35.1651 28.5627 36.1914 28.1679 36.9811 27.4547C37.4411 26.998 38.0631 26.7416 38.7114 26.7416C39.3597 26.7416 39.9816 26.9979 40.4417 27.4546C41.2277 28.1771 42.2563 28.5781 43.3239 28.5781C44.3915 28.5781 45.4202 28.1771 46.2061 27.4546C46.4321 27.2252 46.7017 27.0432 46.999 26.9196C47.2964 26.7959 47.6154 26.7329 47.9375 26.7344C48.1795 26.7306 48.4103 26.6319 48.5802 26.4594C48.75 26.2869 48.8452 26.0546 48.8452 25.8125C48.8452 25.5705 48.75 25.3381 48.5802 25.1657C48.4104 24.9932 48.1795 24.8944 47.9375 24.8906Z" fill="white"/>
<path d="M47.9375 30.4219C46.8685 30.4136 45.8371 30.8157 45.0557 31.5453C44.5951 32.002 43.9728 32.2582 43.3241 32.2583C42.6755 32.2583 42.0531 32.0021 41.5924 31.5455C40.8024 30.8315 39.7754 30.4362 38.7106 30.4363C37.6457 30.4363 36.6188 30.8317 35.8289 31.5459C35.6026 31.7739 35.3335 31.9549 35.037 32.0785C34.7405 32.202 34.4225 32.2656 34.1013 32.2656C33.78 32.2656 33.462 32.202 33.1655 32.0785C32.869 31.9549 32.5999 31.7739 32.3737 31.5459C31.5887 30.8231 30.5607 30.4219 29.4937 30.4219C28.4267 30.4219 27.3987 30.8231 26.6138 31.5459C26.3875 31.7739 26.1183 31.955 25.8217 32.0785C25.5251 32.202 25.207 32.2656 24.8857 32.2656C24.5644 32.2656 24.2463 32.202 23.9498 32.0785C23.6532 31.955 23.384 31.7739 23.1577 31.5459C22.3727 30.8231 21.3447 30.4219 20.2777 30.4219C19.2107 30.4219 18.1827 30.8231 17.3978 31.5459C17.1716 31.7739 16.9025 31.955 16.606 32.0785C16.3094 32.202 15.9914 32.2656 15.6702 32.2656C15.349 32.2656 15.0309 32.202 14.7344 32.0785C14.4379 31.955 14.1688 31.7739 13.9426 31.5459C13.162 30.8161 12.1311 30.4138 11.0626 30.4219C10.8206 30.4256 10.5897 30.5244 10.4199 30.6969C10.25 30.8693 10.1549 31.1017 10.1548 31.3437C10.1548 31.5858 10.25 31.8181 10.4198 31.9906C10.5897 32.1631 10.8205 32.2619 11.0625 32.2656C11.3842 32.2626 11.7031 32.3248 12 32.4485C12.297 32.5722 12.5657 32.7547 12.7901 32.9852C13.5795 33.6989 14.6058 34.094 15.67 34.0941C16.7342 34.0941 17.7605 33.6991 18.55 32.9855C19.0087 32.5283 19.6299 32.2715 20.2776 32.2715C20.9252 32.2714 21.5465 32.5281 22.0052 32.9852C22.7943 33.6999 23.8209 34.0958 24.8856 34.0958C25.9502 34.0959 26.9769 33.7001 27.766 32.9855C28.2246 32.5282 28.8459 32.2713 29.4936 32.2713C30.1412 32.2712 30.7625 32.528 31.2212 32.9852C32.0107 33.6986 33.0369 34.0936 34.101 34.0938C35.1651 34.0939 36.1914 33.6991 36.9811 32.986C37.4411 32.5292 38.0631 32.2729 38.7114 32.2728C39.3597 32.2728 39.9816 32.5291 40.4417 32.9858C41.2277 33.7084 42.2563 34.1094 43.3239 34.1094C44.3915 34.1094 45.4202 33.7084 46.2061 32.9858C46.4321 32.7564 46.7017 32.5745 46.999 32.4508C47.2964 32.3271 47.6154 32.2642 47.9375 32.2656C48.1795 32.2619 48.4103 32.1631 48.5802 31.9906C48.75 31.8182 48.8452 31.5858 48.8452 31.3438C48.8452 31.1017 48.75 30.8694 48.5802 30.6969C48.4104 30.5244 48.1795 30.4256 47.9375 30.4219Z" fill="white"/>
<path d="M47.9375 35.9531C46.8685 35.9448 45.8371 36.3469 45.0557 37.0766C44.5951 37.5332 43.9728 37.7895 43.3241 37.7895C42.6755 37.7896 42.0531 37.5334 41.5924 37.0768C40.8024 36.3627 39.7754 35.9674 38.7106 35.9675C37.6457 35.9676 36.6188 36.363 35.8289 37.0771C35.6026 37.3052 35.3335 37.4862 35.037 37.6097C34.7405 37.7333 34.4225 37.7969 34.1013 37.7969C33.78 37.7969 33.462 37.7333 33.1655 37.6097C32.869 37.4862 32.5999 37.3052 32.3737 37.0771C31.5887 36.3544 30.5607 35.9532 29.4937 35.9532C28.4267 35.9532 27.3987 36.3544 26.6138 37.0771C26.3875 37.3052 26.1183 37.4862 25.8217 37.6097C25.5251 37.7333 25.207 37.7969 24.8857 37.7969C24.5644 37.7969 24.2463 37.7333 23.9498 37.6097C23.6532 37.4862 23.384 37.3052 23.1577 37.0771C22.3727 36.3544 21.3447 35.9532 20.2777 35.9532C19.2107 35.9532 18.1827 36.3544 17.3978 37.0771C17.1716 37.3052 16.9025 37.4862 16.606 37.6097C16.3094 37.7333 15.9914 37.7969 15.6702 37.7969C15.349 37.7969 15.0309 37.7333 14.7344 37.6097C14.4379 37.4862 14.1688 37.3052 13.9426 37.0771C13.162 36.3474 12.1311 35.945 11.0626 35.9531C10.8206 35.9569 10.5897 36.0556 10.4199 36.2281C10.25 36.4006 10.1549 36.6329 10.1548 36.875C10.1548 37.117 10.25 37.3494 10.4198 37.5219C10.5897 37.6943 10.8205 37.7931 11.0625 37.7969C11.3842 37.7938 11.7031 37.856 12 37.9797C12.297 38.1034 12.5657 38.286 12.7901 38.5165C13.5795 39.2301 14.6058 39.6253 15.67 39.6253C16.7342 39.6254 17.7605 39.2303 18.55 38.5168C19.0087 38.0595 19.6299 37.8028 20.2776 37.8027C20.9252 37.8027 21.5465 38.0593 22.0052 38.5165C22.7943 39.2312 23.8209 39.627 24.8856 39.6271C25.9502 39.6271 26.9769 39.2314 27.766 38.5168C28.2246 38.0594 28.8459 37.8026 29.4936 37.8025C30.1412 37.8025 30.7625 38.0592 31.2212 38.5165C32.0107 39.2299 33.0369 39.6249 34.101 39.625C35.1651 39.6252 36.1914 39.2304 36.9811 38.5172C37.4411 38.0604 38.0631 37.8041 38.7114 37.8041C39.3597 37.8041 39.9816 38.0604 40.4417 38.5171C41.2277 39.2396 42.2563 39.6406 43.3239 39.6406C44.3915 39.6406 45.4202 39.2396 46.2061 38.5171C46.4321 38.2877 46.7017 38.1057 46.999 37.982C47.2964 37.8584 47.6154 37.7954 47.9375 37.7969C48.1795 37.7931 48.4103 37.6944 48.5802 37.5219C48.75 37.3494 48.8452 37.1171 48.8452 36.875C48.8452 36.633 48.75 36.4006 48.5802 36.2282C48.4104 36.0557 48.1795 35.9569 47.9375 35.9531Z" fill="white"/>
</svg>
