<svg width="36" height="36" viewBox="0 0 36 36" fill="none" xmlns="http://www.w3.org/2000/svg">
<path d="M25.1595 7.65901C24.7377 8.08095 24.5007 8.65314 24.5007 9.24976C24.5007 9.84638 24.7377 10.4186 25.1595 10.8405C26.5755 12.2565 27.5398 14.0606 27.9305 16.0247C28.3211 17.9887 28.1206 20.0245 27.3543 21.8746C26.5879 23.7247 25.2902 25.306 23.6251 26.4186C21.9601 27.5311 20.0025 28.1249 18 28.1249C15.9975 28.1249 14.0399 27.5311 12.3749 26.4186C10.7098 25.306 9.41208 23.7247 8.64574 21.8746C7.8794 20.0245 7.67888 17.9887 8.06955 16.0247C8.46021 14.0606 9.42451 12.2565 10.8405 10.8405C11.2504 10.4162 11.4771 9.8478 11.472 9.25786C11.4669 8.66792 11.2303 8.10359 10.8131 7.68642C10.3959 7.26925 9.8316 7.03262 9.24166 7.0275C8.65172 7.02237 8.08336 7.24916 7.65901 7.65901C5.61354 9.70431 4.22052 12.3102 3.65611 15.1472C3.0917 17.9842 3.38125 20.9249 4.48815 23.5973C5.59505 26.2698 7.46957 28.554 9.87466 30.161C12.2798 31.7681 15.1074 32.6259 18 32.6259C20.8926 32.6259 23.7203 31.7681 26.1253 30.161C28.5304 28.554 30.405 26.2698 31.5119 23.5973C32.6188 20.9249 32.9083 17.9842 32.3439 15.1472C31.7795 12.3102 30.3865 9.70431 28.341 7.65901C27.9191 7.2372 27.3469 7.00024 26.7503 7.00024C26.1536 7.00024 25.5814 7.2372 25.1595 7.65901Z" fill="white"/>
<path d="M18 17.775C18.5958 17.772 19.1664 17.534 19.5877 17.1127C20.009 16.6914 20.247 16.1208 20.25 15.525V5.625C20.25 5.02826 20.0129 4.45597 19.591 4.03401C19.169 3.61205 18.5967 3.375 18 3.375C17.4033 3.375 16.831 3.61205 16.409 4.03401C15.9871 4.45597 15.75 5.02826 15.75 5.625V15.525C15.753 16.1208 15.991 16.6914 16.4123 17.1127C16.8336 17.534 17.4042 17.772 18 17.775Z" fill="white"/>
</svg>
