<svg xmlns="http://www.w3.org/2000/svg" version="1.1" xmlns:xlink="http://www.w3.org/1999/xlink" width="512" height="512" x="0" y="0" viewBox="0 0 48 48" style="enable-background:new 0 0 512 512" xml:space="preserve" fill-rule="evenodd" class=""><g><path d="M24 3.5C12.686 3.5 3.5 12.686 3.5 24S12.686 44.5 24 44.5 44.5 35.314 44.5 24 35.314 3.5 24 3.5zm0 3c9.659 0 17.5 7.841 17.5 17.5S33.659 41.5 24 41.5 6.5 33.659 6.5 24 14.341 6.5 24 6.5zm7.5 21.501v-8a3.5 3.5 0 0 0-3.5-3.5h-8a3.5 3.5 0 0 0-3.5 3.5v8a3.5 3.5 0 0 0 3.5 3.5h8a3.5 3.5 0 0 0 3.5-3.5z" fill="#ffffff" opacity="1" data-original="#000000" class=""></path></g></svg>