<svg width="30" height="30" viewBox="0 0 30 30" fill="none" xmlns="http://www.w3.org/2000/svg">
<path d="M17.8008 7.47646C13.6523 7.47646 10.2772 10.8515 10.2772 15C10.2772 19.1485 13.6523 22.5236 17.8008 22.5236C21.9493 22.5236 25.3244 19.1485 25.3244 15C25.3244 10.8515 21.9493 7.47646 17.8008 7.47646ZM21.3486 15.8789H16.9219V9.70952H18.6797V14.1211H21.3486V15.8789Z" fill="#3E90FE"/>
<path d="M17.8344 2.8009C15.1579 2.7937 12.6819 3.64905 10.6673 5.10375H4.01508C2.96631 5.10375 2.11617 5.95395 2.11617 7.00266C2.11617 8.05143 2.96637 8.90157 4.01508 8.90157H7.23334C6.62016 9.96188 6.16248 11.1231 5.8902 12.3541H1.89891C0.850195 12.3542 0 13.2043 0 14.2531C0 15.3019 0.850195 16.152 1.89891 16.152H5.65617C5.76961 17.3631 6.06012 18.5225 6.50156 19.6046H5.14523C4.09646 19.6046 3.24633 20.4548 3.24633 21.5035C3.24633 22.5523 4.09652 23.4024 5.14523 23.4024H8.95699C11.1796 25.741 14.3198 27.1991 17.8008 27.1991C24.5382 27.1992 30 21.7375 30 15.0001C30 8.25985 24.5746 2.81907 17.8344 2.8009ZM17.8008 24.2814C12.6831 24.2814 8.51947 20.1178 8.51947 15C8.51947 9.88225 12.6831 5.71864 17.8008 5.71864C22.9186 5.71864 27.0822 9.88225 27.0822 15C27.0822 20.1178 22.9186 24.2814 17.8008 24.2814Z" fill="#3E90FE"/>
</svg>
